<svg width="170mm" height="260mm" version="1.1" viewBox="0 0 170 260" xmlns="http://www.w3.org/2000/svg" xmlns:cc="http://creativecommons.org/ns#" xmlns:dc="http://purl.org/dc/elements/1.1/" xmlns:rdf="http://www.w3.org/1999/02/22-rdf-syntax-ns#"><metadata><rdf:RDF><cc:Work rdf:about=""><dc:format>image/svg+xml</dc:format><dc:type rdf:resource="http://purl.org/dc/dcmitype/StillImage"/><dc:title/></cc:Work></rdf:RDF></metadata><g transform="translate(0,-37)"><g><g stroke-linecap="round" stroke-linejoin="round"><rect x="40.34" y="69.095" width="89.32" height="136.63" stroke="#000" stroke-width="30.68" style="paint-order:stroke fill markers"/><rect x="43.603" y="231.1" width="83.63" height="39.797" stroke="#000" stroke-width="22.206" style="paint-order:stroke fill markers"/><rect x="45.832" y="250.99" width="80.753" height="9.6596" fill="#fff" stroke="#fff" stroke-width="9.4614" style="paint-order:stroke fill markers"/></g><rect x="40" y="194" width="35" height="18" fill="#000080" stroke-width="0" style="paint-order:stroke fill markers"/><rect x="44.792" y="228.01" width="5.8824" height="25.66" fill="#fff" stroke="#fff" stroke-linecap="round" stroke-linejoin="round" stroke-width="7.7212" style="paint-order:stroke fill markers"/><rect x="121.5" y="230.15" width="5.8824" height="25.66" fill="#fff" stroke="#fff" stroke-linecap="round" stroke-linejoin="round" stroke-width="7.7212" style="paint-order:stroke fill markers"/></g><path d="m41.899 265.77 14.874-23.124z" fill="none" stroke="#000" stroke-width="3.2825"/><path d="m130.27 266.3-14.874-23.124z" fill="none" stroke="#000" stroke-width="3.2825"/><g stroke-width="0"><rect x="95" y="194" width="35" height="18" fill="#000080" style="paint-order:stroke fill markers"/><ellipse cx="86.701" cy="132.16" rx="45" ry="43.298" fill="#fff" style="paint-order:stroke fill markers"/><rect x="77.701" y="102.4" width="18" height="58" style="paint-order:stroke fill markers"/><rect transform="rotate(90)" x="122.46" y="-115.7" width="18" height="58" style="paint-order:stroke fill markers"/></g><g fill="#fff" stroke-width="0"><ellipse cx="48.33" cy="277.46" rx="7.2163" ry="2.94" style="paint-order:stroke fill markers"/><ellipse cx="122.33" cy="277.19" rx="7.2163" ry="2.94" style="paint-order:stroke fill markers"/><rect x="65" y="194" width="40" height="18" style="paint-order:stroke fill markers"/></g></g></svg>
