<svg version="1.1" viewBox="0 0 170 260" xmlns="http://www.w3.org/2000/svg"><g transform="translate(0,-37)"><rect class="primary" x="40.34" y="69.095" width="89.32" height="136.63" style="fill:#ffffff;paint-order:stroke fill markers;stroke-linecap:round;stroke-linejoin:round;stroke-width:30.68;stroke:#ffffff"/><rect class="primary" x="43.603" y="231.1" width="83.63" height="39.797" style="fill-opacity:0;paint-order:stroke fill markers;stroke-linecap:round;stroke-linejoin:round;stroke-width:22.206;stroke:#ffffff"/><rect x="45.832" y="250.99" width="80.753" height="9.6596" style="fill:#000000;paint-order:stroke fill markers;stroke-linecap:round;stroke-linejoin:round;stroke-width:9.4614;stroke:#000000"/><rect class="animate" x="40" y="194" width="35" height="18" style="paint-order:stroke fill markers;stroke-width:0"/><rect x="44.792" y="228.01" width="5.8824" height="25.66" style="fill:#000000;paint-order:stroke fill markers;stroke-linecap:round;stroke-linejoin:round;stroke-width:7.7212;stroke:#000000"/><rect x="121.5" y="230.15" width="5.8824" height="25.66" style="fill:#000000;paint-order:stroke fill markers;stroke-linecap:round;stroke-linejoin:round;stroke-width:7.7212;stroke:#000000"/><path class="primary" d="m41.899 265.77 14.874-23.124z" style="fill:none;stroke-width:3.2825;stroke:#ffffff"/><path class="primary" d="m130.27 266.3-14.874-23.124z" style="fill:none;stroke-width:3.2825;stroke:#ffffff"/><rect class="animate2" x="95" y="194" width="35" height="18" style="paint-order:stroke fill markers;stroke-width:0"/><ellipse cx="86.701" cy="132.16" rx="45" ry="43.298" style="fill:#000000;paint-order:stroke fill markers;stroke-width:0"/><rect class="primary" x="77.701" y="102.4" width="18" height="58" style="fill:#ffffff;paint-order:stroke fill markers;stroke-width:0"/><rect class="primary" transform="rotate(90)" x="122.46" y="-115.7" width="18" height="58" style="fill:#ffffff;paint-order:stroke fill markers;stroke-width:0"/><ellipse cx="48.33" cy="277.46" rx="7.2163" ry="2.94" style="fill:#000000;paint-order:stroke fill markers;stroke-width:0"/><ellipse cx="122.33" cy="277.19" rx="7.2163" ry="2.94" style="fill:#000000;paint-order:stroke fill markers;stroke-width:0"/><rect x="65" y="194" width="40" height="18" style="fill:#000000;paint-order:stroke fill markers;stroke-width:0"/></g></svg>
