<svg class="feather feather-truck" width="500in" height="500in" fill="none" stroke="currentColor" stroke-linecap="round" stroke-linejoin="round" stroke-width="2" version="1.1" viewBox="0 0 48000 48000" xmlns="http://www.w3.org/2000/svg"><g transform="translate(0,47976)"><g fill="#000"><rect x="6493.5" y="-26470" width="25313" height="16994" stroke-width="2970.6"/><polygon transform="matrix(1679.3 0 0 1996.5 2662.2 -41930)" points="23 11 23 16 16 16 16 8 20 8"/><circle cx="13061" cy="-6908.2" r="4500.2" stroke="#fff" stroke-linejoin="round" stroke-width="2479"/><ellipse cx="33866" cy="-6908.4" rx="4500.2" ry="4500.4" stroke="#fff" stroke-linejoin="round" stroke-width="2479"/></g><path d="m32618-28679c0 13310-568.27 11883 10616 11883" fill="none" stroke="#fff" stroke-linecap="square" stroke-linejoin="bevel" stroke-width="1663.8px" style="paint-order:stroke fill markers"/><g transform="matrix(1663.8 0 0 1663.8 5750.9 -39688)"><circle cx="8.8414" cy="12.257" r="3.1" fill="#fff" stroke="#fff" stroke-linecap="square" stroke-linejoin="bevel" stroke-width=".8" style="paint-order:stroke fill markers"/><rect x="8.1914" y="9.5071" width="1.3" height="5.5" fill="#0a0a0a" stroke-width="0" style="paint-order:stroke fill markers"/><rect transform="rotate(90)" x="11.607" y="-11.591" width="1.3" height="5.5" fill="#0a0a0a" stroke-width="0" style="paint-order:stroke fill markers"/></g><g transform="matrix(1663.8 0 0 1663.8 5139.3 -39950)" fill="#0a0a0a" stroke-width="0"><ellipse cx="13.4" cy="4.9365" rx="1.2" ry="1.1816" style="paint-order:stroke fill markers"/><rect x="12.2" y="4.853" width="2.4" height="1.517" style="paint-order:stroke fill markers"/></g><g fill="#0a0a0a" stroke="#000" stroke-linecap="butt" stroke-linejoin="round" stroke-width="1080.7"><path transform="rotate(9.1354)" d="m15195-34394a2070.1 3842.1 0 0 1-0.06 28.859l-2070-28.859z" style="paint-order:markers fill stroke"/><path transform="matrix(-.98732 .15877 .15877 .98732 0 0)" d="m-38729-25722a2070.1 3842.1 0 0 1-0.06 28.859l-2070-28.859z" style="paint-order:markers fill stroke"/><path transform="matrix(-.68321 .73022 .73022 .68321 0 0)" d="m-47684-317.42a2070.1 3842.1 0 0 1-0.06 28.858l-2070-28.858z" style="paint-order:markers fill stroke"/><path transform="rotate(46.905)" d="m-10280-40296a2070.1 3842.1 0 0 1-0.06 28.858l-2070-28.858z" style="paint-order:markers fill stroke"/><path transform="rotate(89.834)" d="m-36743-27533a2070.1 3842.1 0 0 1-0.06 28.859l-2070-28.859z" style="paint-order:markers fill stroke"/></g></g><g transform="translate(0,47976)" display="none"><circle cx="18.5" cy="18.5" r="2.5"/><circle cx="5.5" cy="18.5" r="2.5"/></g><g display="none"><ellipse transform="translate(0,47976)" cx="27420" cy="-31167" rx="6500.5" ry="6500.1" display="inline" fill="#0a0a0a" fill-opacity=".55172" stroke-opacity="0" style="paint-order:markers fill stroke"/></g></svg>
